<svg width="509" height="389" viewBox="0 0 509 389" fill="none" xmlns="http://www.w3.org/2000/svg">
<g clip-path="url(#clip0_10_268)">
<path d="M400.769 385.839L410.511 379.408V372.672H423.957L425.756 389.557H401.81C401.392 389.553 400.987 389.41 400.654 389.148C400.321 388.886 400.078 388.519 399.961 388.101C399.844 387.684 399.86 387.238 400.005 386.831C400.151 386.423 400.419 386.075 400.769 385.839Z" fill="#F9B499"/>
<path d="M457.404 371.196L460.608 381.105L446.339 389.55H467.293L472.978 385.686C473.581 385.276 474.046 384.681 474.309 383.983C474.573 383.285 474.621 382.519 474.448 381.791L470.814 366.431L457.404 371.196Z" fill="#F9B499"/>
<path d="M468.128 158.212H314.498C311.604 158.212 309.259 160.656 309.259 163.669V271.631C309.259 274.644 311.604 277.088 314.498 277.088H468.128C471.021 277.088 473.366 274.644 473.366 271.631V163.669C473.366 160.656 471.021 158.212 468.128 158.212Z" fill="#D1D3D4"/>
<path opacity="0.2" d="M473.366 177.339H309.259V194.389H473.366V177.339Z" fill="black"/>
<path d="M473.366 194.389H309.259V217.656H473.366V194.389Z" fill="#CCCCCC"/>
<path d="M355.558 201.8H320.8C319.199 201.8 317.902 203.152 317.902 204.819V207.22C317.902 208.888 319.199 210.239 320.8 210.239H355.558C357.159 210.239 358.457 208.888 358.457 207.22V204.819C358.457 203.152 357.159 201.8 355.558 201.8Z" fill="#BCBEC0"/>
<path d="M408.689 201.8H373.931C372.33 201.8 371.032 203.152 371.032 204.819V207.22C371.032 208.888 372.33 210.239 373.931 210.239H408.689C410.289 210.239 411.587 208.888 411.587 207.22V204.819C411.587 203.152 410.289 201.8 408.689 201.8Z" fill="#BCBEC0"/>
<path d="M460.626 211.091C462.395 211.091 463.83 209.596 463.83 207.753C463.83 205.909 462.395 204.415 460.626 204.415C458.856 204.415 457.422 205.909 457.422 207.753C457.422 209.596 458.856 211.091 460.626 211.091Z" fill="#BCBEC0"/>
<path d="M450.172 211.091C451.942 211.091 453.377 209.596 453.377 207.753C453.377 205.909 451.942 204.415 450.172 204.415C448.403 204.415 446.968 205.909 446.968 207.753C446.968 209.596 448.403 211.091 450.172 211.091Z" fill="#BCBEC0"/>
<path d="M439.807 211.091C441.577 211.091 443.012 209.596 443.012 207.753C443.012 205.909 441.577 204.415 439.807 204.415C438.038 204.415 436.603 205.909 436.603 207.753C436.603 209.596 438.038 211.091 439.807 211.091Z" fill="#BCBEC0"/>
<path d="M287.841 28.6807H143.353C135.775 28.6807 129.631 35.0806 129.631 42.9751V375.256C129.631 383.151 135.775 389.55 143.353 389.55H287.841C295.42 389.55 301.563 383.151 301.563 375.256V42.9751C301.563 35.0806 295.42 28.6807 287.841 28.6807Z" fill="#75A2C7"/>
<path opacity="0.2" d="M285.442 33.7517H145.205C138.893 33.7517 133.776 39.0822 133.776 45.6576V372.378C133.776 378.953 138.893 384.283 145.205 384.283H285.442C291.755 384.283 296.872 378.953 296.872 372.378V45.6576C296.872 39.0822 291.755 33.7517 285.442 33.7517Z" fill="black"/>
<path d="M280.422 39.9496H149.756C144.56 39.9496 140.349 44.3368 140.349 49.7487V369.591C140.349 375.003 144.56 379.39 149.756 379.39H280.422C285.617 379.39 289.828 375.003 289.828 369.591V49.7487C289.828 44.3368 285.617 39.9496 280.422 39.9496Z" fill="white"/>
<path d="M273.396 110.381H155.547V254.666H273.396V110.381Z" fill="#CCCCCC"/>
<path d="M182.779 243.422C182.779 243.422 181.368 194.751 198.036 172.501L195.925 149.755L190.393 161.005L175.971 153.656L184.378 135.717C185.815 132.568 187.917 129.798 190.528 127.615C193.579 125.104 197.801 123.089 202.498 125.043C202.498 125.043 217.526 129.691 225.739 125.288C225.739 125.288 237.497 122.838 243.112 135.803C248.727 148.769 251.566 154.176 251.566 154.176L237.456 161.269L232.523 150.753L229.707 173.009C229.707 173.009 246.14 197.831 242.971 243.44L182.779 243.422Z" fill="#414FE6"/>
<path d="M229.837 172.145H198.007L197.742 169.291H230.201L229.837 172.145Z" fill="white"/>
<path d="M204.144 172.146C204.144 172.146 201.093 176.904 202.969 182.526H204.144V178.613L206.725 178.368C206.725 178.368 206.255 172.146 208.131 172.146H204.144Z" fill="white"/>
<path opacity="0.2" d="M202.498 125.055C202.498 125.055 200.147 138.057 213.11 141.052C215.604 141.667 218.228 141.273 220.453 139.949C223.393 138.112 226.333 134.137 225.745 125.3C225.762 125.3 219.501 129.709 202.498 125.055Z" fill="black"/>
<path d="M229.26 267.386H155.547V271.422H229.26V267.386Z" fill="#CCCCCC"/>
<path d="M194.403 275.091H155.547V279.127H194.403V275.091Z" fill="#CCCCCC"/>
<path d="M194.403 282.796H155.547V286.832H194.403V282.796Z" fill="#CCCCCC"/>
<path d="M234.505 83.3718C233.627 83.0887 232.689 83.083 231.808 83.3555C230.927 83.628 230.144 84.1665 229.557 84.9028C228.97 85.6391 228.606 86.5401 228.511 87.492C228.416 88.4439 228.594 89.4038 229.022 90.2503C229.451 91.0969 230.111 91.792 230.918 92.2478C231.726 92.7036 232.646 92.8996 233.56 92.811C234.475 92.7225 235.344 92.3533 236.057 91.7501C236.771 91.147 237.296 90.3371 237.568 89.4228C237.749 88.816 237.813 88.178 237.757 87.5452C237.701 86.9125 237.526 86.2976 237.241 85.7355C236.956 85.1735 236.568 84.6754 236.099 84.2698C235.629 83.8642 235.088 83.5591 234.505 83.3718ZM235.939 88.8838C235.768 89.4627 235.436 89.9756 234.984 90.3577C234.533 90.7398 233.983 90.9739 233.404 91.0303C232.825 91.0868 232.243 90.9631 231.732 90.6749C231.22 90.3867 230.802 89.9469 230.531 89.4112C230.259 88.8755 230.146 88.268 230.206 87.6655C230.266 87.0629 230.496 86.4924 230.868 86.0262C231.239 85.56 231.735 85.219 232.292 85.0463C232.85 84.8736 233.444 84.877 233.999 85.0561C234.369 85.1748 234.713 85.3684 235.011 85.6259C235.308 85.8833 235.555 86.1995 235.735 86.5563C235.915 86.9131 236.026 87.3034 236.061 87.705C236.096 88.1065 236.055 88.5113 235.939 88.8961V88.8838Z" fill="#CCCCCC"/>
<path d="M235.91 91.6381L235.252 92.1542L238.36 96.4481L239.017 95.932L235.91 91.6381Z" fill="#CCCCCC"/>
<path d="M265.024 96.1719H274.148L273.396 87.7631H265.024V96.1719Z" fill="#CCCCCC"/>
<path d="M271.897 89.4166H271.074V86.1523C271.087 85.914 271.054 85.6753 270.976 85.4509C270.897 85.2265 270.776 85.0211 270.619 84.8474C270.461 84.6736 270.272 84.5352 270.061 84.4406C269.851 84.346 269.624 84.2972 269.395 84.2972C269.166 84.2972 268.939 84.346 268.729 84.4406C268.518 84.5352 268.329 84.6736 268.171 84.8474C268.014 85.0211 267.893 85.2265 267.815 85.4509C267.736 85.6753 267.703 85.914 267.717 86.1523V89.4166H266.917V86.1523C266.901 85.7995 266.953 85.4468 267.071 85.1158C267.19 84.7847 267.371 84.4821 267.605 84.2263C267.839 83.9706 268.12 83.7669 268.432 83.6278C268.744 83.4887 269.079 83.4169 269.419 83.4169C269.758 83.4169 270.093 83.4887 270.405 83.6278C270.717 83.7669 270.998 83.9706 271.232 84.2263C271.466 84.4821 271.647 84.7847 271.766 85.1158C271.884 85.4468 271.937 85.7995 271.92 86.1523L271.897 89.4166Z" fill="#CCCCCC"/>
<path d="M168.746 84.9336H155.547V85.791H168.746V84.9336Z" fill="#CCCCCC"/>
<path d="M168.746 89.8577H155.547V90.7151H168.746V89.8577Z" fill="#CCCCCC"/>
<path d="M168.746 94.451H155.547V95.3084H168.746V94.451Z" fill="#CCCCCC"/>
<path d="M260.05 302.314H164.995V324.423H260.05V302.314Z" fill="#CCCCCC"/>
<path d="M146.54 313.375H33.9467V389.551H146.54V313.375Z" fill="#CCCCCC"/>
<path opacity="0.2" d="M97.0896 332.679V313.375H116.808V332.679L112.74 329.678C112.299 329.36 111.768 329.209 111.233 329.249C110.698 329.289 110.193 329.518 109.8 329.899L108.672 331.007C108.188 331.483 107.563 331.773 106.9 331.831C106.236 331.889 105.574 331.711 105.021 331.326L103.339 330.162C102.954 329.896 102.502 329.754 102.04 329.754C101.578 329.754 101.126 329.896 100.741 330.162L97.0896 332.679Z" fill="black"/>
<g opacity="0.2">
<path d="M97.0895 351.034H76.6651V351.891H97.0895V351.034Z" fill="black"/>
</g>
<g opacity="0.2">
<path d="M97.0895 359.4H76.6651V360.257H97.0895V359.4Z" fill="black"/>
</g>
<g opacity="0.2">
<path d="M97.0895 367.766H76.6651V368.623H97.0895V367.766Z" fill="black"/>
</g>
<path opacity="0.2" d="M135.828 348.578H102.728V370.834H135.828V348.578Z" fill="black"/>
<path opacity="0.2" d="M59.0627 313.375H33.9467V389.551H59.0627V313.375Z" fill="black"/>
<path d="M67.4818 252.455L64.6127 313.375H81.0216L77.8998 252.455H67.4818Z" fill="#BCBEC0"/>
<path d="M112.281 252.455L115.145 313.375H81.0216L77.8997 252.455H112.281Z" fill="#D1D3D4"/>
<path d="M97.5952 269.475C95.3895 269.47 93.2718 268.573 91.6882 266.974C90.1046 265.374 89.1787 263.197 89.1056 260.901L88.7763 251.585C88.7421 251.074 88.5208 250.595 88.1579 250.249C87.7951 249.902 87.3184 249.714 86.8261 249.722C86.3338 249.731 85.8635 249.936 85.512 250.295C85.1606 250.654 84.9548 251.14 84.9372 251.653V252.455H84.1141V251.653C84.1008 250.896 84.3768 250.165 84.8812 249.62C85.3856 249.075 86.0772 248.761 86.8038 248.747C87.5305 248.733 88.2326 249.02 88.7558 249.546C89.2789 250.071 89.5803 250.792 89.5935 251.549L89.9522 260.901C89.9827 261.958 90.2138 262.998 90.6321 263.962C91.0505 264.925 91.6479 265.793 92.3898 266.515C93.1317 267.236 94.0035 267.798 94.9549 268.167C95.9062 268.536 96.9183 268.705 97.9327 268.665C98.9471 268.625 99.9438 268.375 100.865 267.932C101.787 267.488 102.615 266.859 103.302 266.08C103.988 265.301 104.52 264.388 104.867 263.394C105.213 262.4 105.368 261.345 105.32 260.288L105.003 251.543C105.008 251.02 104.813 250.516 104.461 250.143C104.109 249.769 103.63 249.557 103.128 249.552C102.625 249.547 102.142 249.75 101.784 250.117C101.425 250.483 101.221 250.983 101.217 251.506L101.164 252.467L100.341 252.418L100.394 251.457C100.445 250.739 100.757 250.068 101.266 249.581C101.775 249.093 102.443 248.826 103.135 248.833C103.826 248.84 104.489 249.121 104.989 249.618C105.488 250.116 105.788 250.793 105.826 251.512L106.12 260.288C106.197 262.627 105.386 264.902 103.862 266.622C102.339 268.342 100.227 269.367 97.9832 269.475H97.5952Z" fill="#BCBEC0"/>
<path d="M73.2317 252.455H72.4086V302.694H73.2317V252.455Z" fill="#D1D3D4"/>
<path d="M80.5101 313.375L72.8201 302.694L65.136 313.375H64.6127L72.8201 301.616L81.0216 313.375H80.5101Z" fill="#D1D3D4"/>
<path d="M86.1777 277.106H91.2104L100.27 313.375H87.3536L86.1777 277.106Z" fill="#BCBEC0"/>
<path d="M100.27 313.375H87.3359L91.616 303.827L100.27 313.375ZM88.1531 313.001H99.0826L91.7924 304.856L88.1531 313.001Z" fill="#D1D3D4"/>
<path d="M91.2103 277.106L119.389 277.571L128.614 313.375H100.27L91.2103 277.106Z" fill="#D1D3D4"/>
<path d="M109.412 289.612C108.237 289.613 107.089 289.247 106.115 288.562C105.142 287.876 104.388 286.902 103.951 285.766L100.282 276.261C100.196 276.041 100.049 275.852 99.8591 275.72C99.6694 275.588 99.446 275.518 99.2178 275.52H99.0885C98.9147 275.52 98.7431 275.561 98.587 275.641C98.4309 275.72 98.2942 275.836 98.1876 275.979C98.081 276.122 98.0071 276.289 97.9717 276.466C97.9363 276.643 97.9402 276.826 97.9832 277.002L97.1895 277.21C97.115 276.909 97.1078 276.593 97.1684 276.288C97.229 275.983 97.3558 275.697 97.5391 275.451C97.7224 275.205 97.9574 275.006 98.226 274.869C98.4945 274.733 98.7896 274.662 99.0885 274.662H99.2178C99.6097 274.661 99.9929 274.783 100.318 275.011C100.643 275.239 100.894 275.564 101.04 275.942L104.715 285.447C105.191 286.725 106.126 287.759 107.321 288.331C108.516 288.903 109.879 288.968 111.119 288.512C112.36 288.055 113.381 287.114 113.966 285.887C114.552 284.66 114.656 283.244 114.257 281.938L112.575 276.181C112.504 275.942 112.344 275.743 112.131 275.627C111.918 275.511 111.67 275.488 111.441 275.563C111.212 275.637 111.02 275.804 110.909 276.026C110.797 276.247 110.775 276.506 110.847 276.745L111.059 277.443L110.277 277.7L110.065 277.002C109.997 276.777 109.973 276.54 109.993 276.305C110.014 276.07 110.078 275.841 110.183 275.632C110.289 275.423 110.432 275.238 110.606 275.087C110.78 274.936 110.981 274.822 111.197 274.751C111.413 274.681 111.64 274.655 111.866 274.677C112.091 274.698 112.311 274.765 112.511 274.874C112.712 274.984 112.89 275.134 113.035 275.315C113.18 275.496 113.29 275.705 113.357 275.93L115.045 281.687C115.316 282.604 115.376 283.575 115.22 284.52C115.065 285.466 114.699 286.361 114.151 287.132C113.602 287.903 112.888 288.529 112.065 288.96C111.242 289.391 110.333 289.614 109.412 289.612Z" fill="#BCBEC0"/>
<path d="M63.431 172.103C77.4743 172.103 88.8586 160.243 88.8586 145.614C88.8586 130.985 77.4743 119.126 63.431 119.126C49.3877 119.126 38.0033 130.985 38.0033 145.614C38.0033 160.243 49.3877 172.103 63.431 172.103Z" fill="#D1D3D4"/>
<path d="M60.3561 150.618L77.1531 133.329C77.4252 133.047 77.7488 132.825 78.1048 132.675C78.4608 132.526 78.842 132.453 79.2257 132.459C79.6095 132.466 79.988 132.553 80.3389 132.715C80.6898 132.877 81.0059 133.111 81.2686 133.402C81.528 133.687 81.7311 134.022 81.8662 134.389C82.0013 134.755 82.0658 135.146 82.056 135.538C82.0461 135.931 81.9622 136.317 81.8089 136.676C81.6557 137.034 81.4361 137.358 81.1627 137.628L59.9975 158.592C59.808 158.782 59.5551 158.888 59.292 158.888C59.0289 158.888 58.776 158.782 58.5865 158.592L45.858 145.761C45.5904 145.49 45.3785 145.165 45.2351 144.806C45.0916 144.447 45.0196 144.062 45.0235 143.673C45.0273 143.284 45.1069 142.9 45.2574 142.544C45.408 142.189 45.6263 141.868 45.8991 141.603C46.4225 141.094 47.1156 140.818 47.8313 140.833C48.547 140.848 49.2289 141.152 49.7324 141.683L58.2279 150.624C58.3668 150.772 58.5326 150.889 58.7156 150.968C58.8985 151.048 59.0949 151.089 59.2932 151.088C59.4915 151.087 59.6877 151.046 59.8702 150.965C60.0528 150.884 60.218 150.766 60.3561 150.618Z" fill="white"/>
<path d="M361.279 82.9615C373.77 82.9615 383.896 72.4131 383.896 59.4009C383.896 46.3887 373.77 35.8402 361.279 35.8402C348.787 35.8402 338.661 46.3887 338.661 59.4009C338.661 72.4131 348.787 82.9615 361.279 82.9615Z" fill="#CCCCCC"/>
<path d="M391.31 157.618C391.31 157.618 404.944 133.69 439.284 144.996C439.284 144.996 458.468 149.993 456.451 164.459C456.451 164.459 448.056 203.043 435.921 214.288C434.545 215.554 432.798 216.299 430.964 216.4C429.13 216.501 427.318 215.953 425.821 214.845L391.31 189.441L395.084 171.294L427.144 192.338L437.497 158.145L391.31 157.618Z" fill="#414FE6"/>
<path d="M392.48 183.843L369.304 171.594C368.6 171.222 367.977 170.702 367.474 170.068C366.972 169.433 366.6 168.697 366.383 167.906C366.165 167.116 366.107 166.287 366.211 165.471C366.315 164.656 366.579 163.871 366.987 163.167C367.756 161.841 368.989 160.876 370.426 160.476C371.863 160.077 373.394 160.273 374.695 161.024L384.748 166.836L380.386 162.255C380.065 161.924 379.876 161.479 379.855 161.009C379.835 160.54 379.984 160.079 380.274 159.719C380.431 159.525 380.625 159.365 380.842 159.251C381.06 159.137 381.298 159.069 381.541 159.053C381.785 159.037 382.029 159.073 382.259 159.158C382.489 159.243 382.7 159.375 382.879 159.548L395.084 171.294L392.48 183.843Z" fill="#F9B499"/>
<path d="M390.463 236.574H335.692C334.091 236.574 332.794 237.926 332.794 239.594V241.995C332.794 243.662 334.091 245.014 335.692 245.014H390.463C392.064 245.014 393.361 243.662 393.361 241.995V239.594C393.361 237.926 392.064 236.574 390.463 236.574Z" fill="#CCCCCC"/>
<path d="M448.168 236.574H413.41C411.809 236.574 410.511 237.926 410.511 239.594V241.995C410.511 243.662 411.809 245.014 413.41 245.014H448.168C449.768 245.014 451.066 243.662 451.066 241.995V239.594C451.066 237.926 449.768 236.574 448.168 236.574Z" fill="#CCCCCC"/>
<path d="M390.463 247.819H335.692C334.091 247.819 332.794 249.171 332.794 250.838V253.239C332.794 254.907 334.091 256.258 335.692 256.258H390.463C392.064 256.258 393.361 254.907 393.361 253.239V250.838C393.361 249.171 392.064 247.819 390.463 247.819Z" fill="#CCCCCC"/>
<path d="M422.129 290.978L422.181 291.707L428.119 375.348H403.48C401.363 369.836 397.495 276.916 397.495 276.916L422.14 277.143L422.129 290.978Z" fill="#75A2C7"/>
<path d="M418.266 277.026V288.583C418.264 289.848 418.517 291.1 419.007 292.258L453.988 375.244L475.665 367.539L447.574 289.03L446.986 277.088L418.266 277.026Z" fill="#75A2C7"/>
<path d="M251.631 85.1908C252.269 84.511 253.12 84.0917 254.03 84.0088C256.123 83.8435 257.304 85.05 257.481 87.1629C257.544 87.8942 257.459 88.6313 257.23 89.3258C257.001 90.0202 256.634 90.6565 256.152 91.1928C254.97 92.6301 253.555 93.8406 251.972 94.7695C251.855 94.8514 251.715 94.8915 251.574 94.8838C251.433 94.876 251.298 94.8209 251.19 94.7266C250.18 94.1188 249.225 93.4156 248.339 92.6259C248.107 92.4317 247.894 92.2142 247.704 91.9767C247.141 91.2902 246.634 90.5569 246.187 89.7842C245.909 89.2486 245.738 88.6598 245.684 88.0536C245.631 87.4473 245.696 86.8359 245.875 86.2565C245.998 85.7392 246.253 85.2661 246.614 84.8877C246.974 84.5092 247.426 84.2394 247.921 84.1068C248.496 83.935 249.104 83.9184 249.688 84.0588C250.271 84.1992 250.81 84.4918 251.255 84.9091L251.531 85.148L251.631 85.1908Z" fill="#CCCCCC"/>
<path d="M266.452 268.201C267.089 267.519 267.941 267.099 268.851 267.019C270.944 266.854 272.12 268.06 272.296 270.173C272.362 270.904 272.278 271.641 272.05 272.336C271.822 273.031 271.455 273.667 270.974 274.203C269.791 275.639 268.376 276.847 266.793 277.774C266.677 277.856 266.538 277.898 266.397 277.891C266.256 277.884 266.121 277.83 266.012 277.737C265.001 277.129 264.047 276.426 263.16 275.636C262.931 275.439 262.719 275.222 262.525 274.987C261.963 274.3 261.456 273.567 261.008 272.794C260.73 272.258 260.559 271.668 260.506 271.061C260.452 270.453 260.517 269.841 260.697 269.261C260.821 268.745 261.076 268.275 261.435 267.897C261.794 267.52 262.243 267.251 262.737 267.117C263.312 266.944 263.919 266.927 264.502 267.066C265.086 267.205 265.625 267.497 266.07 267.913C266.164 267.999 266.258 268.079 266.353 268.152C266.353 268.152 266.394 268.171 266.452 268.201Z" fill="#CCCCCC"/>
<path d="M357.992 82.9615C370.483 82.9615 380.609 72.4131 380.609 59.4009C380.609 46.3887 370.483 35.8402 357.992 35.8402C345.501 35.8402 335.375 46.3887 335.375 59.4009C335.375 72.4131 345.501 82.9615 357.992 82.9615Z" fill="#D1D3D4"/>
<path d="M358.944 71.1659V73.6585H356.869V71.2087C352.883 70.8474 350.596 68.3119 350.596 64.4719H353.124C353.124 67.136 355.146 68.6855 357.88 68.6855C360.367 68.6855 362.354 67.2646 362.354 65.1149C362.354 62.7325 360.056 62.1936 357.504 61.5995C354.412 60.9013 350.955 60.0806 350.955 55.8119C350.955 52.5415 353.159 50.453 356.646 50.1039V47.7705H358.821V50.1223C362.302 50.5265 364.33 52.8844 364.33 56.4121H361.855C361.855 53.9623 360.091 52.5537 357.651 52.5537C355.211 52.5537 353.459 53.7357 353.459 55.7017C353.459 57.9371 355.705 58.4638 358.204 59.0885C361.355 59.8173 364.882 60.6931 364.882 65.0904C364.859 68.4527 362.548 70.78 358.944 71.1659Z" fill="white"/>
<path d="M414.286 132.367V141.689C414.286 147.054 417.919 151.402 422.405 151.402C426.891 151.402 430.524 147.054 430.524 141.689V124.271L414.286 132.367Z" fill="#F9B499"/>
<path d="M414.286 140.188V137.236L423.957 136.164L414.286 140.188Z" fill="#F4A48E"/>
<path d="M417.948 137.836C425.686 137.836 431.959 130.079 431.959 120.51C431.959 110.942 425.686 103.184 417.948 103.184C410.211 103.184 403.938 110.942 403.938 120.51C403.938 130.079 410.211 137.836 417.948 137.836Z" fill="#F9B499"/>
<path d="M440.795 113.688C446.468 113.688 451.066 109.353 451.066 104.005C451.066 98.6575 446.468 94.3224 440.795 94.3224C435.123 94.3224 430.524 98.6575 430.524 104.005C430.524 109.353 435.123 113.688 440.795 113.688Z" fill="#75A2C7"/>
<path d="M406.66 109.456C406.66 109.456 410.964 117.736 420.853 115.017C420.853 115.017 425.556 127.976 429.148 127.811C429.148 127.811 433.211 127.253 434.075 116.603C434.416 112.932 433.623 109.244 431.812 106.075C430.459 103.785 428.46 101.678 425.597 101.365C424.751 101.267 423.904 101.218 423.057 101.09C419.483 100.557 409.688 100.03 406.66 109.456Z" fill="#75A2C7"/>
<path d="M423.957 122.783C425.639 122.783 427.002 121.362 427.002 119.61C427.002 117.858 425.639 116.438 423.957 116.438C422.275 116.438 420.912 117.858 420.912 119.61C420.912 121.362 422.275 122.783 423.957 122.783Z" fill="#F9B499"/>
</g>
<defs>
<clipPath id="clip0_10_268">
<rect width="509" height="389" fill="white"/>
</clipPath>
</defs>
</svg>
