<svg width="462" height="332" viewBox="0 0 462 332" fill="none" xmlns="http://www.w3.org/2000/svg">
<g clip-path="url(#clip0_10_413)">
<path d="M390.234 150.079L344.91 144.547L347.393 105.203H390.234V150.079Z" fill="#FFB6B6"/>
<path d="M416.025 198.154C415.313 198.153 414.617 197.945 414.023 197.557C413.428 197.169 412.962 196.617 412.68 195.969L406.386 181.431L425.041 181.495L437.858 168.075L444.005 182.285C444.377 183.156 444.391 184.136 444.042 185.017C443.693 185.897 443.01 186.607 442.139 186.994L417.501 197.841C417.037 198.047 416.534 198.153 416.025 198.154Z" fill="#E6E6E6"/>
<path d="M422.207 183.328C422.052 183.328 421.896 183.323 421.741 183.314L406.752 182.475L406.346 181.573L406.63 181.448L437.806 167.703L438.212 168.604L428.674 180.274C427.893 181.227 426.907 181.995 425.789 182.523C424.67 183.052 423.447 183.326 422.207 183.328Z" fill="#CCCCCC"/>
<path d="M395.808 48.73L351.555 49.2777C350.724 49.2767 349.928 48.9496 349.341 48.3681C348.753 47.7866 348.423 46.9981 348.422 46.1757V31.6986C348.422 25.5737 350.88 19.6997 355.254 15.3687C359.628 11.0378 365.561 8.60468 371.747 8.60468C377.933 8.60468 383.866 11.0378 388.24 15.3687C392.614 19.6997 395.071 25.5737 395.071 31.6986L398.942 45.628C398.941 46.4504 398.611 47.2388 398.023 47.8204C397.436 48.4019 396.64 48.729 395.809 48.73H395.808Z" fill="#2F2E41"/>
<path d="M417.474 177.449C416.738 176.789 416.156 175.977 415.771 175.071C415.386 174.165 415.206 173.185 415.244 172.203C415.282 171.22 415.538 170.258 415.992 169.383C416.447 168.509 417.09 167.744 417.875 167.142L410.176 144.485L422.306 147.659L427.76 168.687C428.699 170.061 429.095 171.728 428.874 173.372C428.652 175.016 427.828 176.522 426.558 177.604C425.288 178.686 423.661 179.268 421.986 179.239C420.311 179.211 418.706 178.574 417.474 177.449V177.449Z" fill="#FFB6B6"/>
<path d="M365.003 323.189L355.919 321.73L357.281 286.347L370.687 288.498L365.003 323.189Z" fill="#FFB6B6"/>
<path d="M410.273 304.43L402.058 308.534L380.297 277.268L392.422 271.211L410.273 304.43Z" fill="#FFB6B6"/>
<path d="M371.554 49.1275C380.475 49.1275 387.707 41.9672 387.707 33.1344C387.707 24.3017 380.475 17.1414 371.554 17.1414C362.633 17.1414 355.401 24.3017 355.401 33.1344C355.401 41.9672 362.633 49.1275 371.554 49.1275Z" fill="#FFB8B8"/>
<path d="M384.343 293.062L346.513 197.553C332.975 160.936 345.071 135.699 345.195 135.449L345.257 135.326L345.387 135.279C346.94 141.266 382.163 140.858 390.234 131.637C394.945 135.556 401.216 144.781 402.559 155.806C403.963 167.634 402.898 179.621 399.431 191.024L384.53 241.039L402.966 282.16L384.343 293.062Z" fill="#2F2E41"/>
<path d="M366.101 233.82L352.442 302.397L370.633 305.794L382.079 246.433L366.101 233.82Z" fill="#2F2E41"/>
<path d="M346.152 116.883C349.062 117.653 377.828 129.39 391.476 117.498L402.186 65.1445L389.355 61.1376L384.877 55.7466C384.392 55.1619 383.781 54.693 383.088 54.3745C382.395 54.0561 381.638 53.8964 380.874 53.9072L364.957 54.1179C364.253 54.1281 363.559 54.2822 362.918 54.5707C362.277 54.8592 361.703 55.2758 361.232 55.7943L356.133 61.4239L344.617 64.0777L346.152 116.883Z" fill="#5045E6"/>
<path d="M397.302 69.2281L400.789 64.6306C400.789 64.6306 407.178 66.2927 410.424 75.3571C413.67 84.4214 426.969 156.842 426.969 156.842L412.647 163.426L393.253 99.4217L397.302 69.2281Z" fill="#5045E6"/>
<path d="M282.536 155.473C282.672 154.499 283.021 153.566 283.56 152.74C284.099 151.914 284.814 151.215 285.655 150.692C286.497 150.169 287.444 149.835 288.429 149.714C289.415 149.593 290.415 149.687 291.36 149.99L305.917 130.918L310.109 142.627L295.643 158.942C295.025 160.483 293.858 161.746 292.363 162.49C290.867 163.235 289.147 163.41 287.53 162.982C285.913 162.554 284.511 161.553 283.59 160.169C282.669 158.784 282.294 157.113 282.536 155.473H282.536Z" fill="#FFB6B6"/>
<path d="M349.733 68.2133L344.91 64.0159C344.91 64.0159 339.857 65.2779 336.612 74.3422C333.366 83.4066 291.934 144.177 291.934 144.177L306.256 150.761L353.783 98.4044L349.733 68.2133Z" fill="#5045E6"/>
<path d="M388.386 32.0794H365.809C365.384 32.079 364.975 31.9254 364.657 31.6475C364.339 31.3695 364.134 30.9863 364.081 30.5696L363.789 28.2545C363.76 28.0321 363.66 27.8249 363.502 27.664C363.344 27.5032 363.138 27.3974 362.914 27.3627C362.691 27.3281 362.462 27.3663 362.262 27.4717C362.062 27.5771 361.902 27.744 361.806 27.9472L360.326 31.0848C360.185 31.3814 359.962 31.6322 359.683 31.8082C359.403 31.9842 359.08 32.078 358.749 32.0788H355.319C354.858 32.0795 354.416 31.8988 354.089 31.5765C353.763 31.2542 353.579 30.8166 353.578 30.3601C353.578 30.3036 353.581 30.2472 353.587 30.1909L354.939 16.2062C354.968 15.9072 355.074 15.6207 355.249 15.3747C355.423 15.1287 355.658 14.9317 355.932 14.8028C366.272 10.0238 376.757 10.0299 387.097 14.8212C387.359 14.9433 387.586 15.1282 387.758 15.3592C387.93 15.5902 388.041 15.86 388.082 16.1441L390.107 30.1104C390.143 30.3549 390.125 30.6041 390.055 30.8411C389.985 31.0781 389.864 31.2974 389.7 31.484C389.537 31.6706 389.335 31.8202 389.108 31.9226C388.881 32.0251 388.634 32.0779 388.385 32.0776L388.386 32.0794Z" fill="#2F2E41"/>
<path d="M24.1964 11.0629C23.4112 11.062 22.6578 11.3696 22.1013 11.918C21.5448 12.4665 21.2307 13.211 21.2279 13.9884L20.4984 327.776C20.4976 328.553 20.8082 329.299 21.3621 329.85C21.916 330.401 22.668 330.712 23.4532 330.715L278.768 331.296C279.553 331.297 280.307 330.989 280.863 330.441C281.42 329.892 281.734 329.147 281.736 328.37L282.466 14.5829C282.467 13.8054 282.156 13.0593 281.602 12.5083C281.048 11.9573 280.296 11.6464 279.51 11.6438L24.1964 11.0629Z" fill="#E6E6E6"/>
<path d="M33.6549 20.469C32.8697 20.4682 32.1163 20.7757 31.5598 21.3241C31.0033 21.8726 30.6893 22.6171 30.6865 23.3945L30.0035 318.413C30.0027 319.19 30.3133 319.936 30.8672 320.487C31.4211 321.038 32.1731 321.349 32.9583 321.352L269.317 321.891C270.102 321.891 270.855 321.584 271.412 321.035C271.968 320.487 272.282 319.742 272.285 318.965L272.968 23.9466C272.969 23.1691 272.658 22.423 272.104 21.872C271.55 21.321 270.798 21.0101 270.013 21.0075L33.6549 20.469Z" fill="white"/>
<path d="M238.614 148.578L64.4569 148.181C63.2875 148.165 62.1717 147.693 61.3516 146.868C60.5314 146.043 60.0729 144.93 60.0756 143.772C60.0783 142.615 60.5419 141.504 61.366 140.683C62.19 139.861 63.3079 139.394 64.4773 139.384L238.635 139.781C239.804 139.797 240.92 140.269 241.74 141.094C242.56 141.919 243.019 143.032 243.016 144.19C243.013 145.347 242.55 146.458 241.726 147.279C240.902 148.101 239.784 148.568 238.614 148.578V148.578Z" fill="#E6E6E6"/>
<path d="M240.3 66.615L124.758 66.3519C123.13 66.3482 121.815 64.3755 121.821 61.946C121.826 59.5166 123.151 57.55 124.779 57.5537L240.321 57.8168C241.949 57.8205 243.264 59.7932 243.258 62.2227C243.253 64.6521 241.928 66.6211 240.3 66.615Z" fill="#E6E6E6"/>
<path d="M240.241 91.8353L124.699 91.5722C123.071 91.5685 121.756 89.5958 121.762 87.1664C121.767 84.7369 123.092 82.7704 124.72 82.7741L240.262 83.0372C241.89 83.0409 243.205 85.0136 243.199 87.443C243.194 89.8725 241.869 91.839 240.241 91.8353Z" fill="#E6E6E6"/>
<path d="M238.546 177.024L64.3885 176.627C63.2192 176.611 62.1034 176.139 61.2832 175.314C60.463 174.488 60.0046 173.376 60.0073 172.218C60.01 171.06 60.4736 169.95 61.2976 169.129C62.1217 168.307 63.2396 167.84 64.409 167.829L238.566 168.226C239.745 168.215 240.879 168.668 241.72 169.486C242.561 170.303 243.039 171.417 243.05 172.584C243.061 173.751 242.604 174.874 241.778 175.707C240.953 176.539 239.827 177.013 238.649 177.024C238.614 177.024 238.58 177.024 238.546 177.024Z" fill="#E6E6E6"/>
<path d="M238.484 205.469L64.3265 205.072C63.1571 205.056 62.0413 204.584 61.2212 203.759C60.401 202.934 59.9425 201.821 59.9452 200.663C59.9479 199.506 60.4115 198.395 61.2356 197.574C62.0596 196.752 63.1775 196.285 64.3469 196.275L238.504 196.672C239.088 196.665 239.668 196.773 240.21 196.989C240.752 197.204 241.246 197.523 241.663 197.928C242.08 198.333 242.413 198.815 242.642 199.347C242.871 199.879 242.991 200.451 242.997 201.029C243.002 201.607 242.893 202.181 242.674 202.717C242.455 203.254 242.132 203.742 241.722 204.154C241.313 204.567 240.825 204.895 240.288 205.121C239.75 205.347 239.172 205.465 238.588 205.47C238.553 205.47 238.519 205.47 238.484 205.469V205.469Z" fill="#E6E6E6"/>
<path d="M238.416 233.916L64.2588 233.519C63.0894 233.503 61.9737 233.031 61.1535 232.205C60.3333 231.38 59.8748 230.268 59.8775 229.11C59.8802 227.952 60.3439 226.842 61.1679 226.02C61.9919 225.199 63.1099 224.732 64.2793 224.721L238.437 225.118C239.614 225.109 240.747 225.562 241.587 226.379C242.427 227.196 242.905 228.31 242.916 229.476C242.927 230.641 242.471 231.764 241.646 232.596C240.822 233.429 239.698 233.904 238.521 233.916C238.486 233.916 238.451 233.916 238.416 233.916Z" fill="#E6E6E6"/>
<path d="M152.668 261.132L64.1923 260.735C63.023 260.719 61.9072 260.247 61.087 259.422C60.2668 258.596 59.8084 257.484 59.8111 256.326C59.8138 255.168 60.2774 254.058 61.1014 253.237C61.9255 252.415 63.0434 251.948 64.2128 251.938L152.688 252.335C153.866 252.326 154.998 252.779 155.838 253.596C156.677 254.413 157.155 255.527 157.166 256.692C157.177 257.857 156.721 258.979 155.897 259.812C155.073 260.645 153.949 261.119 152.772 261.132C152.738 261.133 152.703 261.133 152.668 261.132Z" fill="#E6E6E6"/>
<path d="M152.602 289.579L64.1265 289.182C62.9572 289.166 61.8414 288.694 61.0212 287.868C60.201 287.043 59.7426 285.931 59.7453 284.773C59.7479 283.615 60.2116 282.505 61.0356 281.683C61.8596 280.862 62.9776 280.395 64.147 280.384L152.623 280.781C153.8 280.772 154.932 281.226 155.772 282.043C156.611 282.86 157.089 283.973 157.1 285.139C157.111 286.304 156.655 287.426 155.831 288.259C155.007 289.091 153.884 289.566 152.707 289.579C152.672 289.579 152.637 289.579 152.602 289.579Z" fill="#E6E6E6"/>
<path d="M202.104 33.0329V12.1023C202.139 10.5476 201.864 9.00139 201.295 7.55193C200.726 6.10247 199.874 4.77817 198.788 3.65464C197.702 2.53111 196.403 1.63034 194.966 1.00378C193.528 0.37722 191.98 0.037127 190.41 0.00292548C188.84 -0.0312761 187.278 0.241087 185.814 0.804453C184.35 1.36782 183.013 2.21115 181.878 3.28632C180.743 4.36148 179.833 5.64742 179.2 7.0707C178.568 8.49398 178.224 10.0267 178.19 11.5814H180.821C180.915 9.19519 181.938 6.93744 183.675 5.28077C185.412 3.6241 187.729 2.69695 190.141 2.69337H190.278C192.755 2.73266 195.114 3.74363 196.838 5.50419C198.562 7.26475 199.51 9.6309 199.473 12.0828V33.2C199.451 34.8293 198.783 36.3847 197.612 37.5299C196.441 38.6752 194.863 39.3184 193.217 39.3206H193.14C191.478 39.2977 189.894 38.6226 188.735 37.4438C187.576 36.2649 186.938 34.6788 186.959 33.0338L186.974 12.2441C186.971 11.4164 187.301 10.6216 187.89 10.0344C188.479 9.44727 189.28 9.11588 190.116 9.11317C190.951 9.11046 191.754 9.43665 192.347 10.02C192.94 10.6033 193.275 11.396 193.278 12.2237V18.2638C193.278 18.6093 193.416 18.9407 193.663 19.185C193.91 19.4293 194.245 19.5666 194.594 19.5666C194.943 19.5666 195.277 19.4293 195.524 19.185C195.771 18.9407 195.909 18.6093 195.909 18.2638V12.203C195.908 11.4511 195.757 10.7069 195.465 10.0127C195.174 9.31853 194.746 8.68807 194.209 8.15732C193.671 7.62656 193.032 7.20591 192.33 6.91937C191.628 6.63282 190.876 6.48601 190.117 6.48731C189.357 6.4886 188.606 6.63797 187.904 6.92691C187.203 7.21584 186.567 7.63868 186.03 8.17126C185.494 8.70385 185.07 9.33576 184.78 10.0309C184.491 10.7261 184.342 11.4708 184.344 12.2227L184.33 33.0172C184.304 35.3503 185.214 37.5984 186.86 39.2681C188.506 40.9379 190.754 41.8931 193.11 41.924H193.22C195.558 41.9205 197.801 41.006 199.464 39.3782C201.127 37.7504 202.076 35.5402 202.106 33.2251C202.105 33.158 202.105 33.0899 202.104 33.0329Z" fill="#5045E6"/>
<path d="M238.118 271.024C238.123 274.49 237.498 277.928 236.275 281.176C235.72 282.663 235.038 284.101 234.238 285.475C231.666 289.919 227.955 293.611 223.48 296.179C219.004 298.747 213.923 300.099 208.751 300.099C203.578 300.099 198.497 298.747 194.022 296.179C189.547 293.611 185.835 289.919 183.263 285.475C183.003 285.028 182.756 284.575 182.523 284.115C180.526 280.194 179.453 275.876 179.382 271.486C179.312 267.096 180.247 262.747 182.116 258.765C183.986 254.784 186.742 251.273 190.177 248.497C193.613 245.72 197.639 243.75 201.953 242.734C206.267 241.719 210.758 241.683 215.088 242.631C219.418 243.579 223.475 245.485 226.955 248.207C230.435 250.929 233.247 254.396 235.18 258.347C237.114 262.299 238.118 266.633 238.118 271.024H238.118Z" fill="#E4E4E4"/>
<path d="M210.278 275.932C213.378 275.932 215.892 273.444 215.892 270.373C215.892 267.303 213.378 264.815 210.278 264.815C207.177 264.815 204.663 267.303 204.663 270.373C204.663 273.444 207.177 275.932 210.278 275.932Z" fill="#5045E6"/>
<path d="M182.523 284.115C184.996 281.468 188.303 277.265 191.405 280.302C192.961 281.734 195.397 285.283 197.729 282.963L215.939 264.934C216.282 264.598 216.689 264.335 217.136 264.157C217.583 263.98 218.062 263.893 218.544 263.902C219.025 263.91 219.5 264.014 219.941 264.207C220.381 264.4 220.779 264.678 221.109 265.025L236.275 281.176C235.72 282.663 235.038 284.101 234.238 285.475H183.263L182.523 284.115Z" fill="#3F3D56"/>
<path d="M106.491 73.6922C106.496 77.1581 105.871 80.5967 104.648 83.8442C104.093 85.3316 103.411 86.77 102.611 88.1439C100.039 92.5873 96.3282 96.2796 91.8528 98.8474C87.3773 101.415 82.2965 102.767 77.1239 102.767C71.9513 102.767 66.8705 101.415 62.395 98.8474C57.9196 96.2796 54.2083 92.5873 51.6364 88.1439C51.376 87.697 51.1291 87.2435 50.8957 86.7832C48.8994 82.8624 47.8258 78.545 47.7554 74.1547C47.685 69.7645 48.6197 65.4155 50.4893 61.4339C52.3588 57.4524 55.1148 53.9417 58.5503 51.1653C61.9859 48.3889 66.0119 46.4189 70.3262 45.403C74.6406 44.3871 79.1312 44.3517 83.4614 45.2995C87.7915 46.2474 91.8486 48.1538 95.3283 50.8757C98.808 53.5976 101.62 57.0644 103.553 61.016C105.487 64.9676 106.491 69.3014 106.491 73.6922H106.491Z" fill="#E4E4E4"/>
<path d="M78.6507 78.6009C81.7514 78.6009 84.2651 76.1121 84.2651 73.042C84.2651 69.9719 81.7514 67.4832 78.6507 67.4832C75.5499 67.4832 73.0363 69.9719 73.0363 73.042C73.0363 76.1121 75.5499 78.6009 78.6507 78.6009Z" fill="#5045E6"/>
<path d="M50.8958 86.7832C53.3694 84.1364 56.6763 79.9341 59.7778 82.9705C61.3344 84.4028 63.7704 87.952 66.1023 85.6317L84.312 67.6021C84.6549 67.267 85.0619 67.0032 85.5091 66.826C85.9564 66.6488 86.4349 66.562 86.9166 66.5705C87.3983 66.5791 87.8733 66.6828 88.3139 66.8757C88.7545 67.0686 89.1517 67.3468 89.4822 67.6938L104.648 83.8442C104.093 85.3317 103.411 86.7701 102.611 88.144H51.6364L50.8958 86.7832Z" fill="#3F3D56"/>
<path d="M192.173 36.9673C193.887 36.9673 195.277 35.5912 195.277 33.8936C195.277 32.1961 193.887 30.8199 192.173 30.8199C190.458 30.8199 189.068 32.1961 189.068 33.8936C189.068 35.5912 190.458 36.9673 192.173 36.9673Z" fill="#5045E6"/>
<path d="M369.667 331.428H363.758L362.704 325.904L360.002 331.428H344.331C343.58 331.428 342.848 331.19 342.243 330.749C341.638 330.308 341.191 329.688 340.968 328.978C340.744 328.268 340.756 327.505 341.001 326.802C341.245 326.099 341.711 325.492 342.329 325.069L354.844 316.512V310.928L368.007 311.706L369.667 331.428Z" fill="#2F2E41"/>
<path d="M422.025 317.735L417.061 320.909L413.149 316.835L413.906 322.926L400.74 331.343C400.109 331.747 399.365 331.94 398.615 331.895C397.865 331.849 397.15 331.568 396.573 331.091C395.996 330.615 395.588 329.968 395.409 329.246C395.229 328.524 395.288 327.764 395.575 327.077L401.4 313.166L398.341 308.475L409.825 302.059L422.025 317.735Z" fill="#2F2E41"/>
<path d="M462 330.771H0V332H462V330.771Z" fill="#CCCCCC"/>
</g>
<defs>
<clipPath id="clip0_10_413">
<rect width="462" height="332" fill="white"/>
</clipPath>
</defs>
</svg>
