<?xml version="1.0" standalone="no"?>
<!DOCTYPE svg PUBLIC "-//W3C//DTD SVG 20010904//EN"
 "http://www.w3.org/TR/2001/REC-SVG-20010904/DTD/svg10.dtd">
<svg version="1.0" xmlns="http://www.w3.org/2000/svg"
 width="1024.000000pt" height="500.000000pt" viewBox="0 0 1024.000000 500.000000"
 preserveAspectRatio="xMidYMid meet">
<metadata>
Created by potrace 1.16, written by Peter Selinger 2001-2019
</metadata>
<g transform="translate(0.000000,500.000000) scale(0.100000,-0.100000)"
fill="#000000" stroke="none">
<path d="M4175 3013 c-22 -37 -41 -70 -43 -75 -2 -4 141 -8 318 -8 l322 0 30
-30 c27 -27 30 -36 25 -72 -3 -25 -16 -52 -34 -70 -29 -32 -136 -86 -210 -109
-24 -6 -43 -15 -43 -19 0 -16 132 -295 147 -312 14 -16 35 -18 170 -18 160 0
203 9 217 45 16 42 10 44 -100 47 l-106 3 -44 95 c-23 52 -43 100 -43 105 0 6
30 23 67 40 96 43 173 104 205 163 45 83 32 170 -32 225 -62 52 -103 57 -471
57 l-336 0 -39 -67z"/>
<path d="M4386 2853 c-3 -10 -41 -136 -86 -281 -44 -145 -80 -265 -80 -267 0
-3 46 -5 103 -5 l103 0 83 273 c46 149 86 278 88 285 4 9 -20 12 -100 12 -92
0 -106 -2 -111 -17z"/>
</g>
</svg>
